<?xml version="1.0" encoding="UTF-8"?>
<!DOCTYPE svg PUBLIC "-//W3C//DTD SVG 1.0//EN" "http://www.w3.org/TR/2001/REC-SVG-20010904/DTD/svg10.dtd">
<!-- Creator: CorelDRAW (Versão OEM) -->
<svg xmlns="http://www.w3.org/2000/svg" xml:space="preserve" width="169px" height="137px" version="1.0" style="shape-rendering:geometricPrecision; text-rendering:geometricPrecision; image-rendering:optimizeQuality; fill-rule:evenodd; clip-rule:evenodd"
viewBox="0 0 20.85 16.94"
 xmlns:xlink="http://www.w3.org/1999/xlink"
 xmlns:xodm="http://www.corel.com/coreldraw/odm/2003">
 <defs>
  <style type="text/css">
   <![CDATA[
    .fil1 {fill:#10B981}
    .fil0 {fill:#10B981;fill-rule:nonzero}
   ]]>
  </style>
 </defs>
 <g id="Camada_x0020_1">
  <metadata id="CorelCorpID_0Corel-Layer"/>
  <g id="_2557796295408">
   <path class="fil0" d="M19.65 0.03c-0.74,-0.15 -1.39,0.28 -1.61,0.91l-5.73 0 0 -0.94 -3.77 0 0 0.94 -5.73 0c-0.22,-0.63 -0.88,-1.06 -1.61,-0.91 -0.54,0.1 -0.98,0.54 -1.09,1.07 -0.19,0.92 0.5,1.72 1.38,1.72 0.61,0 1.13,-0.39 1.32,-0.94l5.73 0 0 0.21c-4.13,0.85 -7.28,4.38 -7.51,8.7 -0.01,0.27 0.2,0.5 0.47,0.5 0.25,0 0.46,-0.19 0.47,-0.44 0.19,-3.82 2.95,-6.97 6.57,-7.8l0 0.71 3.77 0 0 -0.71c3.62,0.83 6.37,3.98 6.57,7.8 0.01,0.25 0.22,0.44 0.47,0.44 0.27,0 0.48,-0.23 0.47,-0.5 -0.23,-4.32 -3.39,-7.85 -7.51,-8.7l0 -0.21 5.73 0c0.19,0.55 0.71,0.94 1.32,0.94 0.88,0 1.57,-0.8 1.38,-1.72 -0.11,-0.53 -0.55,-0.97 -1.09,-1.07zm-18.16 1.85c-0.26,0 -0.47,-0.21 -0.47,-0.47 0,-0.26 0.21,-0.47 0.47,-0.47 0.26,0 0.47,0.21 0.47,0.47 0,0.26 -0.21,0.47 -0.47,0.47zm9.87 0.94l-1.88 0 0 -1.88 1.88 0 0 1.88zm8 -0.94c-0.26,0 -0.47,-0.21 -0.47,-0.47 0,-0.26 0.21,-0.47 0.47,-0.47 0.26,0 0.47,0.21 0.47,0.47 0,0.26 -0.21,0.47 -0.47,0.47z"/>
   <path class="fil0" d="M12.28 13.15c0,-0.52 0.3,-1.01 0.77,-1.24l1.09 -0.55 -3.25 -6.5 -0.93 0 -3.25 6.5 1.09 0.55c0.47,0.23 0.77,0.72 0.77,1.24l0 0.07 -0.93 0 0 3.72 5.57 0 0 -3.72 -0.93 0 0 -0.07zm-4.07 -2.07l-0.26 -0.13 2.01 -4.01 0 3.49 0.93 0 0 -3.49 2 4.01 -0.25 0.13c-0.79,0.39 -1.29,1.19 -1.29,2.07l0 0.07 -1.86 0 0 -0.07c0,-0.88 -0.49,-1.68 -1.28,-2.07zm4.07 4.93l-3.71 0 0 -1.86 3.71 0 0 1.86z"/>
   <g>
    <path class="fil1" d="M1.41 10.62c0.79,0 1.42,0.63 1.42,1.41 0,0.78 -0.63,1.42 -1.42,1.42 -0.78,0 -1.41,-0.64 -1.41,-1.42 0,-0.78 0.63,-1.41 1.41,-1.41zm0 0.94c0.26,0 0.47,0.21 0.47,0.47 0,0.26 -0.21,0.47 -0.47,0.47 -0.25,0 -0.47,-0.21 -0.47,-0.47 0,-0.26 0.22,-0.47 0.47,-0.47z"/>
    <path class="fil1" d="M19.43 10.62c0.78,0 1.42,0.63 1.42,1.41 0,0.78 -0.64,1.42 -1.42,1.42 -0.78,0 -1.41,-0.64 -1.41,-1.42 0,-0.78 0.63,-1.41 1.41,-1.41zm0 0.94c0.26,0 0.47,0.21 0.47,0.47 0,0.26 -0.21,0.47 -0.47,0.47 -0.26,0 -0.47,-0.21 -0.47,-0.47 0,-0.26 0.21,-0.47 0.47,-0.47z"/>
   </g>
  </g>
 </g>
</svg>
